HIERARCHY
ROOT joint_Root
{
	OFFSET 0.0 0.0 0.0
	CHANNELS 6 Xposition Yposition Zposition Zrotation Xrotation Yrotation 
	JOINT Hips
	{
		OFFSET -17.1583 93.1646 452.98
		CHANNELS 6 Xposition Yposition Zposition Zrotation Xrotation Yrotation 
		JOINT Spine
		{
			OFFSET 15.7357 0.0 0.0
			CHANNELS 6 Xposition Yposition Zposition Zrotation Xrotation Yrotation 
			JOINT Chest
			{
				OFFSET 8.98455 -0.406207 0.0
				CHANNELS 6 Xposition Yposition Zposition Zrotation Xrotation Yrotation 
				JOINT Neck
				{
					OFFSET 16.3773 0.0 0.0
					CHANNELS 6 Xposition Yposition Zposition Zrotation Xrotation Yrotation 
					JOINT Head
					{
						OFFSET 6.45672 0.0 0.0
						CHANNELS 6 Xposition Yposition Zposition Zrotation Xrotation Yrotation 
						End Site
						{
							OFFSET 0.0 0.0 0.0
						}
					}
				}
				JOINT Shoulder_L
				{
					OFFSET 12.9942 -0.242716 4.98039
					CHANNELS 6 Xposition Yposition Zposition Zrotation Xrotation Yrotation 
					JOINT UpperArm_L
					{
						OFFSET 5.34809 0.0 0.0
						CHANNELS 6 Xposition Yposition Zposition Zrotation Xrotation Yrotation 
						JOINT LowerArm_L
						{
							OFFSET 24.3286 1.87007e-05 0.0
							CHANNELS 6 Xposition Yposition Zposition Zrotation Xrotation Yrotation 
							JOINT Hand_L
							{
								OFFSET 22.2916 0.0 0.0
								CHANNELS 6 Xposition Yposition Zposition Zrotation Xrotation Yrotation 
								End Site
								{
									OFFSET 0.0 0.0 0.0
								}
							}
						}
					}
				}
				JOINT Shoulder_R
				{
					OFFSET 12.9945 -0.242716 -4.98039
					CHANNELS 6 Xposition Yposition Zposition Zrotation Xrotation Yrotation 
					JOINT UpperArm_R
					{
						OFFSET -5.34813 0.0 0.0
						CHANNELS 6 Xposition Yposition Zposition Zrotation Xrotation Yrotation 
						JOINT LowerArm_R
						{
							OFFSET -24.3289 0.000322201 0.0
							CHANNELS 6 Xposition Yposition Zposition Zrotation Xrotation Yrotation 
							JOINT Hand_R
							{
								OFFSET -22.2915 -0.000108084 0.0
								CHANNELS 6 Xposition Yposition Zposition Zrotation Xrotation Yrotation 
								End Site
								{
									OFFSET 0.0 0.0 0.0
								}
							}
						}
					}
				}
			}
		}
		JOINT UpperLeg_L
		{
			OFFSET -2.19248 -6.46944 0.0
			CHANNELS 6 Xposition Yposition Zposition Zrotation Xrotation Yrotation 
			JOINT LowerLeg_L
			{
				OFFSET 39.0811 0.0 -1.23785e-05
				CHANNELS 6 Xposition Yposition Zposition Zrotation Xrotation Yrotation 
				JOINT Foot_L
				{
					OFFSET 40.9854 0.0 -1.26872e-05
					CHANNELS 6 Xposition Yposition Zposition Zrotation Xrotation Yrotation 
					JOINT Toes_L
					{
						OFFSET 11.7543 0.0 0.0
						CHANNELS 6 Xposition Yposition Zposition Zrotation Xrotation Yrotation 
						End Site
						{
							OFFSET 0.0 0.0 0.0
						}
					}
				}
			}
		}
		JOINT UpperLeg_R
		{
			OFFSET -2.19251 6.46944 0.0
			CHANNELS 6 Xposition Yposition Zposition Zrotation Xrotation Yrotation 
			JOINT LowerLeg_R
			{
				OFFSET -39.0811 -0.00228153 -0.0401928
				CHANNELS 6 Xposition Yposition Zposition Zrotation Xrotation Yrotation 
				JOINT Foot_R
				{
					OFFSET -40.9854 0.0 0.0
					CHANNELS 6 Xposition Yposition Zposition Zrotation Xrotation Yrotation 
					JOINT Toes_R
					{
						OFFSET -11.7543 0.0 0.0
						CHANNELS 6 Xposition Yposition Zposition Zrotation Xrotation Yrotation 
						End Site
						{
							OFFSET 0.0 0.0 0.0
						}
					}
				}
			}
		}
	}
}
MOTION
Frames:	4
Frame Time:	0.0333333
0.000000 0.000000 0.000000 0.000000 0.000000 -0.000000 -3.144850 91.947100 -1.886340 84.485100 0.518192 6.669270 15.735700 0.000005 -0.000001 77.392300 86.474200 -74.925200 8.984550 -0.406207 -0.000000 -0.842496 -1.724090 4.919640 16.377300 -0.000001 -0.000001 10.179400 3.284360 -3.007630 6.456720 -0.000001 -0.000000 -2.091540 3.633060 -1.052410 12.994200 -0.242716 4.980390 -93.024100 8.436460 -70.196700 5.348090 -0.000007 -0.000001 -72.995600 27.832700 0.428446 24.328600 0.000019 0.000005 11.184200 27.859200 -22.933400 22.291600 -0.000001 0.000005 -2.027280 4.993260 7.462630 12.994500 -0.242716 -4.980390 87.451000 6.637340 -68.935500 -5.348130 -0.000001 -0.000004 -69.293100 19.964200 -2.915370 -24.328900 0.000322 -0.000009 2.151610 5.285480 -22.197100 -22.291500 -0.000108 -0.000004 -1.627120 5.284880 0.492959 -2.192480 -6.469440 -0.000000 -173.229000 5.821470 -2.374270 39.081100 -0.000007 -0.000012 0.368333 -0.674905 28.624600 40.985400 -0.000006 -0.000013 -0.400615 3.193730 -75.588100 11.754300 -0.000000 0.000003 0.000255 0.163214 -9.957160 -2.192510 6.469440 -0.000001 -170.765000 8.357670 -175.302000 -39.081100 -0.002282 -0.040193 0.138272 -0.453991 16.554200 -40.985400 0.000008 0.000006 5.542620 2.033200 -71.136900 -11.754300 -0.000006 -0.000006 -0.011301 0.280782 -5.163190
0.000000 0.000000 0.000000 0.000000 0.000000 -0.000000 -3.148620 91.954900 -1.893250 84.473800 0.470092 6.635020 15.735700 0.000005 -0.000001 77.701500 86.461200 -75.235400 8.984550 -0.406207 -0.000000 -0.809658 -1.691680 4.918330 16.377300 -0.000001 -0.000001 10.139600 3.306870 -3.021130 6.456720 -0.000001 -0.000000 -2.121250 3.641730 -1.036170 12.994200 -0.242716 4.980390 -93.006200 8.414480 -70.258200 5.348090 -0.000007 -0.000001 -73.004500 27.785100 0.445484 24.328600 0.000019 0.000005 11.233800 27.860800 -23.025900 22.291600 -0.000001 0.000005 -2.051180 4.990930 7.511800 12.994500 -0.242716 -4.980390 87.431000 6.672770 -68.886900 -5.348130 -0.000001 -0.000004 -69.191600 19.118700 -2.701910 -24.328900 0.000322 -0.000009 2.320950 5.299540 -23.703400 -22.291500 -0.000108 -0.000004 -1.881090 5.267460 0.967032 -2.192480 -6.469440 -0.000000 -173.203000 5.740690 -2.394480 39.081100 -0.000007 -0.000012 0.367691 -0.674490 28.597400 40.985400 -0.000006 -0.000013 -0.410562 3.179050 -75.596200 11.754300 -0.000000 0.000003 0.000160 0.164895 -9.888900 -2.192510 6.469440 -0.000001 -170.743000 8.285860 -175.324000 -39.081100 -0.002282 -0.040193 0.136549 -0.449416 16.511700 -40.985400 0.000008 0.000006 5.504630 2.039930 -71.099100 -11.754300 -0.000006 -0.000006 -0.011167 0.279831 -5.202120
0.000000 0.000000 0.000000 0.000000 0.000000 -0.000000 -3.148830 91.960600 -1.914350 84.487300 0.409775 6.576010 15.735700 0.000005 -0.000001 77.752200 86.449900 -75.290500 8.984550 -0.406207 -0.000000 -0.786325 -1.689530 4.909780 16.377300 -0.000001 -0.000001 10.141700 3.307560 -3.029840 6.456720 -0.000001 -0.000000 -2.237730 3.646530 -1.023950 12.994200 -0.242716 4.980390 -93.012900 8.414550 -70.217300 5.348090 -0.000007 -0.000001 -72.970500 27.800400 0.401638 24.328600 0.000019 0.000005 11.239000 27.862400 -23.034600 22.291600 -0.000001 0.000005 -2.140690 4.994300 7.440730 12.994500 -0.242716 -4.980390 87.430300 6.663910 -68.856600 -5.348130 -0.000001 -0.000004 -69.133200 17.882800 -2.397810 -24.328900 0.000322 -0.000009 2.376340 4.900620 -25.921400 -22.291500 -0.000108 -0.000004 -2.224840 5.249200 1.455100 -2.192480 -6.469440 -0.000000 -173.206000 5.702900 -2.438520 39.081100 -0.000007 -0.000012 0.366430 -0.673240 28.559400 40.985400 -0.000006 -0.000013 -0.411319 3.179100 -75.541400 11.754300 -0.000000 0.000003 0.000212 0.163974 -9.926290 -2.192510 6.469440 -0.000001 -170.747000 8.265810 -175.385000 -39.081100 -0.002282 -0.040193 0.136999 -0.451372 16.496500 -40.985400 0.000008 0.000006 5.520700 2.063650 -71.078400 -11.754300 -0.000006 -0.000006 -0.010946 0.278242 -5.267150
0.000000 0.000000 0.000000 0.000000 0.000000 -0.000000 -3.154220 91.973800 -1.943020 84.502200 0.347728 6.490360 15.735700 0.000005 -0.000001 77.787400 86.450600 -75.326700 8.984550 -0.406207 -0.000000 -0.786892 -1.684920 4.907780 16.377300 -0.000001 -0.000001 10.090100 3.334330 -3.038370 6.456720 -0.000001 -0.000000 -2.304570 3.674300 -0.961087 12.994200 -0.242716 4.980390 -93.027300 8.430380 -70.164300 5.348090 -0.000007 -0.000001 -72.953400 27.805400 0.396605 24.328600 0.000019 0.000005 11.233400 27.807200 -23.061900 22.291600 -0.000001 0.000005 -2.055780 4.991370 7.502420 12.994500 -0.242716 -4.980390 87.424300 6.659430 -68.798000 -5.348130 -0.000001 -0.000004 -69.132000 15.849500 -1.856960 -24.328900 0.000322 -0.000009 2.554730 4.582120 -29.196500 -22.291500 -0.000108 -0.000004 -2.656520 5.222590 2.145400 -2.192480 -6.469440 -0.000000 -173.214000 5.670340 -2.495840 39.081100 -0.000007 -0.000012 0.366965 -0.675863 28.500900 40.985400 -0.000006 -0.000013 -0.428481 3.133880 -75.573700 11.754300 -0.000000 0.000003 0.000039 0.166959 -9.805070 -2.192510 6.469440 -0.000001 -170.759000 8.257120 -175.451000 -39.081100 -0.002282 -0.040193 0.135123 -0.446847 16.433300 -40.985400 0.000008 0.000006 5.529390 2.134270 -71.040000 -11.754300 -0.000006 -0.000006 -0.011566 0.282656 -5.086460
